# xmcd CD database file
#
# Track frame offsets:
#	182
#	28987
#	66967
#	88705
#	120092
#	154920
#	188645
#	212752
#	242292
#
# Disc length: 3383 seconds
#
# Revision: 0
# Processed by: cddbd v1.5PL3 Copyright (c) Steve Scherf et al.
# Submitted via: CDex 1.51
#
DISCID=6f0d3509
DTITLE=Vince Mendoza - Instructions Inside
DYEAR=1991
DGENRE=Jazz
TTITLE0=Spirit Moves
TTITLE1=Slowly I Turn
TTITLE2=Will To Live
TTITLE3=Say We Did
TTITLE4=Jung Parade
TTITLE5=Steady Wonder
TTITLE6=Faithkeep
TTITLE7=New World
TTITLE8=Hearts In Part
EXTD=YEAR: 1991
EXTT0=
EXTT1=
EXTT2=
EXTT3=
EXTT4=
EXTT5=
EXTT6=
EXTT7=
EXTT8=
PLAYORDER=
